<svg id="visual" viewBox="0 0 900 675" width="900" height="675" xmlns="http://www.w3.org/2000/svg" xmlns:xlink="http://www.w3.org/1999/xlink" version="1.1"><rect x="0" y="0" width="900" height="675" fill="#002233"></rect><path d="M0 485L21.5 492.7C43 500.3 86 515.7 128.8 524.3C171.7 533 214.3 535 257.2 533.8C300 532.7 343 528.3 385.8 519.5C428.7 510.7 471.3 497.3 514.2 475.7C557 454 600 424 642.8 418.3C685.7 412.7 728.3 431.3 771.2 436.2C814 441 857 432 878.5 427.5L900 423L900 676L878.5 676C857 676 814 676 771.2 676C728.3 676 685.7 676 642.8 676C600 676 557 676 514.2 676C471.3 676 428.7 676 385.8 676C343 676 300 676 257.2 676C214.3 676 171.7 676 128.8 676C86 676 43 676 21.5 676L0 676Z" fill="#0066FF" stroke-linecap="round" stroke-linejoin="miter"></path></svg>